<?xml version="1.0" encoding="iso-8859-1"?>
<!-- Generator: Adobe Illustrator 19.0.0, SVG Export Plug-In . SVG Version: 6.00 Build 0)  -->
<svg version="1.1" id="Layer_1" xmlns="http://www.w3.org/2000/svg" x="0px" y="0px"
	 viewBox="0 0 512 512" style="enable-background:new 0 0 512 512;" xml:space="preserve">
<path style="fill:#B0DACC;" d="M294.275,307.723l-16.446,16.443c-1.407-0.766-2.928-1.528-4.461-2.391
	c-14.117-7.828-41.988-27.048-62.317-47.377c-20.374-20.38-39.667-48.26-47.489-62.377c-0.843-1.483-1.188-2.455-1.954-3.842
	l15.426-14.498l1.598-1.598c12.222-12.222,12.222-32.039,0-44.261l-24.104-24.104c-12.29-12.29-32.241-12.211-44.435,0.176
	l-6.424,6.527c-4.184,5.35-7.732,11.574-10.331,18.211c-2.402,6.339-3.94,12.409-4.605,18.449
	c-5.869,48.531,16.303,92.893,76.473,153.087c83.199,83.174,149.813,77.407,152.711,77.084c6.289-0.742,12.758-2.736,18.901-5.114
	c6.586-2.573,12.864-6.176,18.188-10.359l6.529-6.42c12.399-12.191,12.483-32.151,0.188-44.446l-23.186-23.186
	C326.314,295.503,306.498,295.503,294.275,307.723z"/>
<g>
	<path style="fill:#211E48;" d="M313.095,412.997c-0.002,0-0.002,0-0.003,0c-18.07-0.002-82.925-5.905-158.877-81.834
		C90.258,267.178,66.809,219.115,73.29,165.289c0.81-7.269,2.612-14.523,5.51-22.169c0.02-0.053,0.04-0.106,0.062-0.16
		c3.11-7.937,7.452-15.587,12.563-22.121c0.362-0.463,0.753-0.906,1.166-1.328l6.424-6.527C107.892,103.966,119.748,99,132.401,99
		c12.513,0,24.276,4.874,33.124,13.721l24.102,24.104c8.847,8.847,13.721,20.612,13.721,33.124s-4.873,24.276-13.721,33.126
		l-1.6,1.598c-0.112,0.113-0.227,0.225-0.344,0.334l-6.561,6.166c8.497,13.67,24.051,35.349,40.926,52.231
		c17.149,17.149,39.499,33.04,53.142,41.414l8.093-8.091c8.848-8.847,20.612-13.719,33.123-13.719
		c12.513,0,24.276,4.874,33.124,13.721l23.186,23.186c8.901,8.901,13.774,20.734,13.721,33.322
		c-0.053,12.587-5.025,24.38-14.001,33.205l-6.528,6.421c-0.41,0.404-0.843,0.784-1.295,1.138
		c-6.572,5.162-14.225,9.525-22.134,12.615c-8.491,3.285-15.911,5.268-22.737,6.071
		C318.852,412.792,316.635,412.997,313.095,412.997z M107.847,154.219c-1.951,5.163-3.148,9.929-3.66,14.564
		c-0.006,0.054-0.012,0.109-0.019,0.163c-5.224,43.188,15.646,83.815,72.034,140.228c67.499,67.477,121.843,72.723,136.89,72.724
		h0.002c2.049,0,3.136-0.106,3.147-0.106c4.047-0.479,8.99-1.844,14.963-4.157c4.809-1.878,9.493-4.503,13.558-7.592l5.871-5.774
		c3.018-2.966,4.689-6.933,4.708-11.165c0.017-4.232-1.62-8.209-4.613-11.202l-23.186-23.186c-2.976-2.976-6.931-4.615-11.137-4.615
		s-8.163,1.639-11.137,4.613l-16.446,16.443c-4.876,4.876-12.378,5.959-18.432,2.659c-0.51-0.278-1.037-0.553-1.575-0.836
		c-1.001-0.529-2.031-1.071-3.068-1.654c-14.172-7.858-43.447-27.69-65.692-49.935c-22.376-22.382-42.173-51.558-50.056-65.765
		c-0.701-1.241-1.182-2.247-1.535-2.987c-0.143-0.3-0.28-0.603-0.473-0.95c-3.433-6.221-2.212-13.976,2.963-18.842l16.681-15.762
		c2.973-2.973,4.61-6.928,4.61-11.135c0-4.206-1.639-8.161-4.613-11.135l-24.097-24.101c-2.974-2.974-6.93-4.615-11.137-4.615
		c-4.254,0-8.24,1.67-11.225,4.702l-5.76,5.854C112.369,144.676,109.762,149.348,107.847,154.219z"/>
	<path style="fill:#211E48;" d="M386.715,512H71.997c-35.772,0-64.876-29.104-64.876-64.877V64.877C7.121,29.104,36.225,0,71.997,0
		h314.718c35.772,0,64.876,29.104,64.876,64.877v382.247C451.591,482.896,422.487,512,386.715,512z M71.997,31.095
		c-18.626,0-33.781,15.154-33.781,33.782v382.247c0,18.626,15.154,33.782,33.781,33.782h314.718c18.626,0,33.78-15.154,33.78-33.782
		V64.877c0-18.626-15.154-33.782-33.781-33.782H71.997z"/>
</g>
<path style="fill:#B0DACC;" d="M454.945,458.346h-19.879V53.652h19.879c18.992,0,34.387,15.395,34.387,34.387V423.96
	C489.331,442.951,473.936,458.346,454.945,458.346z"/>
<g>
	<path style="fill:#211E48;" d="M454.945,473.896h-19.879c-8.587,0-15.548-6.962-15.548-15.548V53.652
		c0-8.585,6.961-15.548,15.548-15.548h19.879c27.533,0,49.935,22.4,49.935,49.935v335.922
		C504.879,451.496,482.478,473.896,454.945,473.896z M450.613,442.8h4.332c10.387,0,18.839-8.452,18.839-18.839V88.039
		c0-10.389-8.452-18.839-18.839-18.839h-4.332V442.8z"/>
	<rect x="435.072" y="170.092" style="fill:#211E48;" width="58.599" height="31.095"/>
	<rect x="435.072" y="310.799" style="fill:#211E48;" width="58.599" height="31.095"/>
</g>
<g>
</g>
<g>
</g>
<g>
</g>
<g>
</g>
<g>
</g>
<g>
</g>
<g>
</g>
<g>
</g>
<g>
</g>
<g>
</g>
<g>
</g>
<g>
</g>
<g>
</g>
<g>
</g>
<g>
</g>
</svg>
